<svg width="20" height="21" fill="none" xmlns="http://www.w3.org/2000/svg"><g clip-path="url(#clip0_101_112)" fill="#05FF00"><path d="M10 19.25a8.75 8.75 0 110-17.5 8.75 8.75 0 010 17.5zm0 1.25a10 10 0 100-20 10 10 0 000 20z"/><path d="M13.713 6.713a.288.288 0 00-.025.027l-4.342 5.531L6.73 9.654a.938.938 0 00-1.325 1.325l3.308 3.309a.939.939 0 001.348-.026l4.99-6.237a.938.938 0 00-1.338-1.313z"/></g><defs><clipPath id="clip0_101_112"><path fill="#fff" transform="translate(0 .5)" d="M0 0h20v20H0z"/></clipPath></defs></svg>