<svg width="20" height="21" fill="none" xmlns="http://www.w3.org/2000/svg"><path d="M19.378 2.925a.625.625 0 010 .883l-1.304 1.304-2.5-2.5 1.304-1.304a.625.625 0 01.883 0l1.617 1.616v.001zm-2.188 3.07l-2.5-2.5-8.516 8.517a.625.625 0 00-.151.245l-1.007 3.018a.312.312 0 00.395.395l3.018-1.006a.625.625 0 00.245-.15l8.516-8.518v-.001z" fill="#FFB800"/><path fill-rule="evenodd" clip-rule="evenodd" d="M1.25 17.375a1.875 1.875 0 001.875 1.875h13.75a1.875 1.875 0 001.875-1.875v-7.5a.625.625 0 10-1.25 0v7.5a.624.624 0 01-.625.625H3.125a.625.625 0 01-.625-.625V3.625A.625.625 0 013.125 3h8.125a.625.625 0 100-1.25H3.125A1.875 1.875 0 001.25 3.625v13.75z" fill="#FFB800"/></svg>