<svg width="20" height="21" fill="none" xmlns="http://www.w3.org/2000/svg"><g clip-path="url(#clip0_101_57)" fill="#FF6262"><path d="M6.875 7.375A.625.625 0 017.5 8v7.5a.625.625 0 11-1.25 0V8a.625.625 0 01.625-.625zm3.125 0a.625.625 0 01.625.625v7.5a.624.624 0 11-1.25 0V8A.625.625 0 0110 7.375zM13.75 8a.625.625 0 10-1.25 0v7.5a.624.624 0 101.25 0V8z"/><path fill-rule="evenodd" clip-rule="evenodd" d="M18.125 4.25a1.25 1.25 0 01-1.25 1.25h-.625v11.25a2.5 2.5 0 01-2.5 2.5h-7.5a2.5 2.5 0 01-2.5-2.5V5.5h-.625a1.25 1.25 0 01-1.25-1.25V3a1.25 1.25 0 011.25-1.25H7.5A1.25 1.25 0 018.75.5h2.5a1.25 1.25 0 011.25 1.25h4.375A1.25 1.25 0 0118.125 3v1.25zM5.148 5.5L5 5.574V16.75A1.25 1.25 0 006.25 18h7.5A1.25 1.25 0 0015 16.75V5.574l-.148-.074H5.148zM3.125 4.25V3h13.75v1.25H3.125z"/></g><defs><clipPath id="clip0_101_57"><path fill="#fff" transform="translate(0 .5)" d="M0 0h20v20H0z"/></clipPath></defs></svg>